<?xml version="1.0" encoding="UTF-8" standalone="no"?><svg xmlns="http://www.w3.org/2000/svg" xmlns:xlink="http://www.w3.org/1999/xlink" contentScriptType="application/ecmascript" contentStyleType="text/css" height="1180px" preserveAspectRatio="none" style="width:486px;height:1180px;" version="1.1" viewBox="0 0 486 1180" width="486px" zoomAndPan="magnify"><defs><filter height="300%" id="ft71cenvos97m" width="300%" x="-1" y="-1"><feGaussianBlur result="blurOut" stdDeviation="2.0"/><feColorMatrix in="blurOut" result="blurOut2" type="matrix" values="0 0 0 0 0 0 0 0 0 0 0 0 0 0 0 0 0 0 .4 0"/><feOffset dx="4.0" dy="4.0" in="blurOut2" result="blurOut3"/><feBlend in="SourceGraphic" in2="blurOut3" mode="normal"/></filter></defs><g><!--MD5=[940bb1bb2996e1f57bbda69805330630]
cluster OCI-Compliant Runtimes--><rect fill="#FFFFFF" filter="url(#ft71cenvos97m)" height="178" style="stroke:#000000;stroke-width:1.5;" width="201" x="47.39" y="7"/><rect fill="#FFFFFF" height="10" style="stroke:#000000;stroke-width:1.5;" width="15" x="228.39" y="12"/><rect fill="#FFFFFF" height="2" style="stroke:#000000;stroke-width:1.5;" width="4" x="226.39" y="14"/><rect fill="#FFFFFF" height="2" style="stroke:#000000;stroke-width:1.5;" width="4" x="226.39" y="18"/><text fill="#000000" font-family="sans-serif" font-size="14" font-weight="bold" lengthAdjust="spacing" textLength="185" x="55.39" y="33.5352">OCI-Compliant Runtimes</text><!--MD5=[149c624c9544b3014fb6307ba27bb898]
entity runc--><rect fill="#FEFECE" filter="url(#ft71cenvos97m)" height="46.4883" style="stroke:#A80036;stroke-width:1.5;" width="74" x="110.39" y="41.75"/><rect fill="#FEFECE" height="10" style="stroke:#A80036;stroke-width:1.5;" width="15" x="164.39" y="46.75"/><rect fill="#FEFECE" height="2" style="stroke:#A80036;stroke-width:1.5;" width="4" x="162.39" y="48.75"/><rect fill="#FEFECE" height="2" style="stroke:#A80036;stroke-width:1.5;" width="4" x="162.39" y="52.75"/><text fill="#000000" font-family="sans-serif" font-size="14" lengthAdjust="spacing" textLength="34" x="125.39" y="75.2852">Runc</text><!--MD5=[5b797e7204e369d520cc83e84d47fe0e]
entity crun--><rect fill="#FEFECE" filter="url(#ft71cenvos97m)" height="46.4883" style="stroke:#A80036;stroke-width:1.5;" width="74" x="110.39" y="122.75"/><rect fill="#FEFECE" height="10" style="stroke:#A80036;stroke-width:1.5;" width="15" x="164.39" y="127.75"/><rect fill="#FEFECE" height="2" style="stroke:#A80036;stroke-width:1.5;" width="4" x="162.39" y="129.75"/><rect fill="#FEFECE" height="2" style="stroke:#A80036;stroke-width:1.5;" width="4" x="162.39" y="133.75"/><text fill="#000000" font-family="sans-serif" font-size="14" lengthAdjust="spacing" textLength="34" x="125.39" y="156.2852">Crun</text><!--MD5=[543859a03973e3537bece607af113efe]
entity Buildah--><rect fill="#FFFFFF" filter="url(#ft71cenvos97m)" height="46.4883" style="stroke:#A80036;stroke-width:1.5;" width="91" x="101.89" y="957.75"/><rect fill="#FFFFFF" height="10" style="stroke:#A80036;stroke-width:1.5;" width="15" x="172.89" y="962.75"/><rect fill="#FFFFFF" height="2" style="stroke:#A80036;stroke-width:1.5;" width="4" x="170.89" y="964.75"/><rect fill="#FFFFFF" height="2" style="stroke:#A80036;stroke-width:1.5;" width="4" x="170.89" y="968.75"/><text fill="#000000" font-family="sans-serif" font-size="14" lengthAdjust="spacing" textLength="51" x="116.89" y="991.2852">Buildah</text><!--MD5=[21574471e533ea6aec513c726a971b96]
entity Netavark--><rect fill="#FFFFFF" filter="url(#ft71cenvos97m)" height="46.4883" style="stroke:#A80036;stroke-width:1.5;" width="100" x="97.39" y="552.75"/><rect fill="#FFFFFF" height="10" style="stroke:#A80036;stroke-width:1.5;" width="15" x="177.39" y="557.75"/><rect fill="#FFFFFF" height="2" style="stroke:#A80036;stroke-width:1.5;" width="4" x="175.39" y="559.75"/><rect fill="#FFFFFF" height="2" style="stroke:#A80036;stroke-width:1.5;" width="4" x="175.39" y="563.75"/><text fill="#000000" font-family="sans-serif" font-size="14" lengthAdjust="spacing" textLength="60" x="112.39" y="586.2852">Netavark</text><!--MD5=[7e0bc299cc94add1e582786b4b032314]
entity OCIRuntimeTools--><rect fill="#FFFFFF" filter="url(#ft71cenvos97m)" height="46.4883" style="stroke:#A80036;stroke-width:1.5;" width="160" x="67.39" y="1119.75"/><rect fill="#FFFFFF" height="10" style="stroke:#A80036;stroke-width:1.5;" width="15" x="207.39" y="1124.75"/><rect fill="#FFFFFF" height="2" style="stroke:#A80036;stroke-width:1.5;" width="4" x="205.39" y="1126.75"/><rect fill="#FFFFFF" height="2" style="stroke:#A80036;stroke-width:1.5;" width="4" x="205.39" y="1130.75"/><text fill="#000000" font-family="sans-serif" font-size="14" lengthAdjust="spacing" textLength="120" x="82.39" y="1153.2852">OCIRuntimeTools</text><!--MD5=[edc5ac89098b4c99541bc21d84646db1]
entity image--><rect fill="#FFFFFF" filter="url(#ft71cenvos97m)" height="46.4883" style="stroke:#A80036;stroke-width:1.5;" width="82" x="106.39" y="284.75"/><rect fill="#FFFFFF" height="10" style="stroke:#A80036;stroke-width:1.5;" width="15" x="168.39" y="289.75"/><rect fill="#FFFFFF" height="2" style="stroke:#A80036;stroke-width:1.5;" width="4" x="166.39" y="291.75"/><rect fill="#FFFFFF" height="2" style="stroke:#A80036;stroke-width:1.5;" width="4" x="166.39" y="295.75"/><text fill="#000000" font-family="sans-serif" font-size="14" lengthAdjust="spacing" textLength="42" x="121.39" y="318.2852">image</text><!--MD5=[a5a6ae0ba01c8a4589ab26bd33e87aad]
entity storage--><rect fill="#FFFFFF" filter="url(#ft71cenvos97m)" height="46.4883" style="stroke:#A80036;stroke-width:1.5;" width="92" x="101.39" y="203.75"/><rect fill="#FFFFFF" height="10" style="stroke:#A80036;stroke-width:1.5;" width="15" x="173.39" y="208.75"/><rect fill="#FFFFFF" height="2" style="stroke:#A80036;stroke-width:1.5;" width="4" x="171.39" y="210.75"/><rect fill="#FFFFFF" height="2" style="stroke:#A80036;stroke-width:1.5;" width="4" x="171.39" y="214.75"/><text fill="#000000" font-family="sans-serif" font-size="14" lengthAdjust="spacing" textLength="52" x="116.39" y="237.2852">storage</text><!--MD5=[466b6c18c8ea81a29048f29ee8f86e29]
entity Aardvark--><rect fill="#FFFFFF" filter="url(#ft71cenvos97m)" height="46.4883" style="stroke:#A80036;stroke-width:1.5;" width="102" x="96.39" y="633.75"/><rect fill="#FFFFFF" height="10" style="stroke:#A80036;stroke-width:1.5;" width="15" x="178.39" y="638.75"/><rect fill="#FFFFFF" height="2" style="stroke:#A80036;stroke-width:1.5;" width="4" x="176.39" y="640.75"/><rect fill="#FFFFFF" height="2" style="stroke:#A80036;stroke-width:1.5;" width="4" x="176.39" y="644.75"/><text fill="#000000" font-family="sans-serif" font-size="14" lengthAdjust="spacing" textLength="62" x="111.39" y="667.2852">Aardvark</text><!--MD5=[4640643e374aed3eb9e662d1286d09f2]
entity pasta--><rect fill="#FFFFFF" filter="url(#ft71cenvos97m)" height="46.4883" style="stroke:#A80036;stroke-width:1.5;" width="77" x="108.89" y="795.75"/><rect fill="#FFFFFF" height="10" style="stroke:#A80036;stroke-width:1.5;" width="15" x="165.89" y="800.75"/><rect fill="#FFFFFF" height="2" style="stroke:#A80036;stroke-width:1.5;" width="4" x="163.89" y="802.75"/><rect fill="#FFFFFF" height="2" style="stroke:#A80036;stroke-width:1.5;" width="4" x="163.89" y="806.75"/><text fill="#000000" font-family="sans-serif" font-size="14" lengthAdjust="spacing" textLength="37" x="123.89" y="829.2852">pasta</text><!--MD5=[8e7dbe8f340823f9285a5c446226d157]
entity Conmon--><rect fill="#FFFFFF" filter="url(#ft71cenvos97m)" height="46.4883" style="stroke:#A80036;stroke-width:1.5;" width="99" x="97.89" y="876.75"/><rect fill="#FFFFFF" height="10" style="stroke:#A80036;stroke-width:1.5;" width="15" x="176.89" y="881.75"/><rect fill="#FFFFFF" height="2" style="stroke:#A80036;stroke-width:1.5;" width="4" x="174.89" y="883.75"/><rect fill="#FFFFFF" height="2" style="stroke:#A80036;stroke-width:1.5;" width="4" x="174.89" y="887.75"/><text fill="#000000" font-family="sans-serif" font-size="14" lengthAdjust="spacing" textLength="59" x="112.89" y="910.2852">Conmon</text><!--MD5=[f03ee4b688ab36dc8b9f26a4b5b9876b]
entity slirp4netns--><rect fill="#FFFFFF" filter="url(#ft71cenvos97m)" height="46.4883" style="stroke:#A80036;stroke-width:1.5;" width="117" x="88.89" y="714.75"/><rect fill="#FFFFFF" height="10" style="stroke:#A80036;stroke-width:1.5;" width="15" x="185.89" y="719.75"/><rect fill="#FFFFFF" height="2" style="stroke:#A80036;stroke-width:1.5;" width="4" x="183.89" y="721.75"/><rect fill="#FFFFFF" height="2" style="stroke:#A80036;stroke-width:1.5;" width="4" x="183.89" y="725.75"/><text fill="#000000" font-family="sans-serif" font-size="14" lengthAdjust="spacing" textLength="77" x="103.89" y="748.2852">slirp4netns</text><!--MD5=[efa6a1b9d203597a4a24bd620a48c038]
entity Seccomp--><rect fill="#FFFFFF" filter="url(#ft71cenvos97m)" height="46.4883" style="stroke:#A80036;stroke-width:1.5;" width="101" x="96.89" y="1038.75"/><rect fill="#FFFFFF" height="10" style="stroke:#A80036;stroke-width:1.5;" width="15" x="177.89" y="1043.75"/><rect fill="#FFFFFF" height="2" style="stroke:#A80036;stroke-width:1.5;" width="4" x="175.89" y="1045.75"/><rect fill="#FFFFFF" height="2" style="stroke:#A80036;stroke-width:1.5;" width="4" x="175.89" y="1049.75"/><text fill="#000000" font-family="sans-serif" font-size="14" lengthAdjust="spacing" textLength="61" x="111.89" y="1072.2852">Seccomp</text><!--MD5=[560dfaa0cdaaab3a45b377352af00169]
entity Podman--><rect fill="#FFFFFF" filter="url(#ft71cenvos97m)" height="46.4883" style="stroke:#A80036;stroke-width:1.5;" width="96" x="99.39" y="365.75"/><rect fill="#FFFFFF" height="10" style="stroke:#A80036;stroke-width:1.5;" width="15" x="175.39" y="370.75"/><rect fill="#FFFFFF" height="2" style="stroke:#A80036;stroke-width:1.5;" width="4" x="173.39" y="372.75"/><rect fill="#FFFFFF" height="2" style="stroke:#A80036;stroke-width:1.5;" width="4" x="173.39" y="376.75"/><text fill="#000000" font-family="sans-serif" font-size="14" lengthAdjust="spacing" textLength="56" x="114.39" y="399.2852">Podman</text><!--MD5=[08ef6a1a0796d0adab978fde2ec1b35c]
entity OCI_Config--><ellipse cx="417.39" cy="103" fill="#FEFECE" filter="url(#ft71cenvos97m)" rx="8" ry="8" style="stroke:#A80036;stroke-width:1.5;"/><text fill="#000000" font-family="sans-serif" font-size="14" lengthAdjust="spacing" textLength="125" x="354.89" y="133.5352">OCI Configuration</text><!--MD5=[cf25d34b6f9695ab689953484c0b6ae1]
entity Storage--><ellipse cx="147.39" cy="509" fill="#FEFECE" filter="url(#ft71cenvos97m)" rx="8" ry="8" style="stroke:#A80036;stroke-width:1.5;"/><text fill="#000000" font-family="sans-serif" font-size="14" lengthAdjust="spacing" textLength="53" x="120.89" y="539.5352">Storage</text><!--MD5=[f474ca078bd78d29e43d9c9138696efb]
entity Image--><ellipse cx="147.39" cy="456" fill="#FEFECE" filter="url(#ft71cenvos97m)" rx="8" ry="8" style="stroke:#A80036;stroke-width:1.5;"/><text fill="#000000" font-family="sans-serif" font-size="14" lengthAdjust="spacing" textLength="42" x="126.39" y="486.5352">Image</text><!--MD5=[446e606d7ff1080925058a1156f5d3bf]
link Buildah to OCIRuntimeTools--><path d="M101.56,992.32 C81.35,998.69 58.01,1008.02 39.39,1021 C15.24,1037.82 14.18,1057.89 24.39,1085.5 C30.82,1102.88 44.9,1115 61.32,1123.47 " fill="none" id="Buildah-to-OCIRuntimeTools" style="stroke:#A80036;stroke-width:1.0;"/><polygon fill="#A80036" points="65.61,1125.54,59.2427,1118.0262,61.1069,1123.3671,55.766,1125.2312,65.61,1125.54" style="stroke:#A80036;stroke-width:1.0;"/><!--MD5=[1ca9c73194f8af81b252b6f3a9b3fabe]
link runc to OCI_Config--><path d="M184.81,70.16 C244.76,78.66 361.61,95.23 402.14,100.97 " fill="none" id="runc-to-OCI_Config" style="stroke:#A80036;stroke-width:1.0;stroke-dasharray:7.0,7.0;"/><polygon fill="#A80036" points="407.09,101.68,398.7377,96.4609,402.1391,100.9809,397.6191,104.3823,407.09,101.68" style="stroke:#A80036;stroke-width:1.0;"/><text fill="#000000" font-family="sans-serif" font-size="13" lengthAdjust="spacing" textLength="29" x="287.39" y="81.7084">uses</text><!--MD5=[5949d2365eec8acf7f084ac0487d6dae]
link crun to OCI_Config--><path d="M184.81,140.15 C244.88,130.51 362.09,111.71 402.39,105.24 " fill="none" id="crun-to-OCI_Config" style="stroke:#A80036;stroke-width:1.0;stroke-dasharray:7.0,7.0;"/><polygon fill="#A80036" points="407.09,104.49,397.5736,101.9525,402.152,105.2749,398.8296,109.8533,407.09,104.49" style="stroke:#A80036;stroke-width:1.0;"/><text fill="#000000" font-family="sans-serif" font-size="13" lengthAdjust="spacing" textLength="29" x="287.39" y="115.9484">uses</text><!--MD5=[8461fe9e2d5b02974e6cf36b410e41ee]
link Buildah to Seccomp--><path d="M147.39,1004.71 C147.39,1013.8 147.39,1022.89 147.39,1031.97 " fill="none" id="Buildah-to-Seccomp" style="stroke:#A80036;stroke-width:1.0;"/><polygon fill="#A80036" points="147.39,1036.75,151.39,1027.75,147.39,1031.75,143.39,1027.75,147.39,1036.75" style="stroke:#A80036;stroke-width:1.0;"/><!--MD5=[6112dd431332336042a2b626ccfae24d]
link Podman to Seccomp--><path d="M98.98,395.23 C69.53,402.08 35.51,416.43 24.39,446.5 C13.64,475.57 13.64,975.42 24.39,1004.5 C34.47,1031.73 63.32,1046.07 90.56,1053.62 " fill="none" id="Podman-to-Seccomp" style="stroke:#A80036;stroke-width:1.0;"/><polygon fill="#A80036" points="95.23,1054.83,87.5407,1048.6757,90.3939,1053.5603,85.5093,1056.4135,95.23,1054.83" style="stroke:#A80036;stroke-width:1.0;"/><!--MD5=[5060eeccb8dd6686f6ab59383a8b0de0]
link Podman to OCIRuntimeTools--><path d="M98.98,395.23 C69.53,402.08 35.51,416.43 24.39,446.5 C12.07,479.79 12.07,1052.2 24.39,1085.5 C30.82,1102.88 44.9,1115 61.32,1123.47 " fill="none" id="Podman-to-OCIRuntimeTools" style="stroke:#A80036;stroke-width:1.0;"/><polygon fill="#A80036" points="65.61,1125.54,59.2427,1118.0262,61.1069,1123.3671,55.766,1125.2312,65.61,1125.54" style="stroke:#A80036;stroke-width:1.0;"/><!--MD5=[6c30af7d1399c4eb253348a802a02e2b]
link Podman to Conmon--><path d="M98.98,395.23 C69.53,402.08 35.51,416.43 24.39,446.5 C9.13,487.76 9.13,801.23 24.39,842.5 C34.58,870.04 63.98,884.39 91.48,891.87 " fill="none" id="Podman-to-Conmon" style="stroke:#A80036;stroke-width:1.0;"/><polygon fill="#A80036" points="96.21,893.08,88.4825,886.9738,91.3661,891.8405,86.4993,894.7241,96.21,893.08" style="stroke:#A80036;stroke-width:1.0;"/><!--MD5=[83c6087d08f44b1cbab9c28b5834a4e4]
link Podman to Buildah--><path d="M98.98,395.23 C69.53,402.08 35.51,416.43 24.39,446.5 C6,496.2 6,873.79 24.39,923.5 C35.08,952.39 66.92,966.77 95.52,973.92 " fill="none" id="Podman-to-Buildah" style="stroke:#A80036;stroke-width:1.0;"/><polygon fill="#A80036" points="100.09,975,92.2415,969.0501,95.2222,973.858,90.4143,976.8386,100.09,975" style="stroke:#A80036;stroke-width:1.0;"/><!--MD5=[b15c12a0da272afd1e2a7018d7fa7368]
link Podman to pasta--><path d="M98.98,395.23 C69.53,402.08 35.51,416.43 24.39,446.5 C12.25,479.32 12.25,728.67 24.39,761.5 C35.92,792.66 72.05,806.94 102.19,813.48 " fill="none" id="Podman-to-pasta" style="stroke:#A80036;stroke-width:1.0;"/><polygon fill="#A80036" points="107.04,814.46,99.0056,808.7636,102.1382,813.4739,97.4279,816.6065,107.04,814.46" style="stroke:#A80036;stroke-width:1.0;"/><!--MD5=[f9b8a7394e912b1503b1cf830560704e]
link Podman to slirp4netns--><path d="M98.98,395.23 C69.53,402.08 35.51,416.43 24.39,446.5 C6.35,495.27 6.35,631.73 24.39,680.5 C33.48,705.06 57.84,719.13 82.51,727.19 " fill="none" id="Podman-to-slirp4netns" style="stroke:#A80036;stroke-width:1.0;"/><polygon fill="#A80036" points="87,728.57,79.5784,722.0954,82.222,727.0966,77.2209,729.7402,87,728.57" style="stroke:#A80036;stroke-width:1.0;"/><!--MD5=[6d654d3f62d9752e5af7ae7a1d534c38]
link Podman to Aardvark--><path d="M98.98,395.23 C69.53,402.08 35.51,416.43 24.39,446.5 C12.59,478.38 12.59,567.61 24.39,599.5 C34.39,626.52 62.89,640.85 89.94,648.44 " fill="none" id="Podman-to-Aardvark" style="stroke:#A80036;stroke-width:1.0;"/><polygon fill="#A80036" points="94.58,649.67,86.8952,643.5101,89.7448,648.3968,84.8581,651.2464,94.58,649.67" style="stroke:#A80036;stroke-width:1.0;"/><!--MD5=[98f29c46a99abef8457547f975386b28]
link Podman to Netavark--><path d="M98.98,395.23 C69.53,402.08 35.51,416.43 24.39,446.5 C10.55,483.91 6.75,512.06 39.39,535 C54.87,545.87 73.61,554.3 91.1,560.61 " fill="none" id="Podman-to-Netavark" style="stroke:#A80036;stroke-width:1.0;"/><polygon fill="#A80036" points="95.55,562.17,88.3794,555.4185,90.8314,560.5163,85.7336,562.9683,95.55,562.17" style="stroke:#A80036;stroke-width:1.0;"/><!--MD5=[781fdb6b06dcdb1a6266a45049e9ebe2]
link Podman to Storage--><path d="M99.16,397.87 C59.16,407.95 10.87,427.95 24.39,464.5 C39.64,505.71 102.1,510.04 131.7,509.7 " fill="none" id="Podman-to-Storage" style="stroke:#A80036;stroke-width:1.0;"/><polygon fill="#A80036" points="136.63,509.58,127.5407,505.7873,131.6313,509.6946,127.724,513.7852,136.63,509.58" style="stroke:#A80036;stroke-width:1.0;"/><!--MD5=[b6c66d37b59399d533f53679e7b101db]
link Podman to Image--><path d="M147.39,412.39 C147.39,421.65 147.39,430.9 147.39,440.16 " fill="none" id="Podman-to-Image" style="stroke:#A80036;stroke-width:1.0;"/><polygon fill="#A80036" points="147.39,445.06,151.39,436.06,147.39,440.06,143.39,436.06,147.39,445.06" style="stroke:#A80036;stroke-width:1.0;"/><!--MD5=[6b599a62a5fd13417b1c90ad7c82a4e2]
@startuml
skinparam useOrthogonalEdges true
left to right direction

interface "OCI Configuration" as OCI_Config
component "OCI-Compliant Runtimes" {
    [Runc] as runc
    [Crun] as crun
}

component "Buildah" {

}

component "Netavark" {

}

component "OCIRuntimeTools" {

} 

component "image" {

}

component "storage" {

}

component "Aardvark" {


}

component "pasta" {


}

component "Conmon" {

}

component "slirp4netns" {

}

component "Seccomp" {
    
}
component "Podman" {

}

' Updated connections (you might need to adjust ordering or add further placement hints)
Buildah -> OCIRuntimeTools
' Note: Ensure the component names match the alias names defined above
runc ..> OCI_Config : uses
crun ..> OCI_Config : uses
Buildah -> Seccomp
Podman -> Seccomp
Podman -> OCIRuntimeTools
Podman -> Conmon
Podman -> Buildah
Podman -> pasta
Podman -> slirp4netns
Podman -> Aardvark
Podman -> Netavark
Podman -> Storage
Podman -> Image
@enduml

@startuml
skinparam useOrthogonalEdges true
left to right direction

interface "OCI Configuration" as OCI_Config
component "OCI-Compliant Runtimes" {
    [Runc] as runc
    [Crun] as crun
}

component "Buildah" {

}

component "Netavark" {

}

component "OCIRuntimeTools" {

} 

component "image" {

}

component "storage" {

}

component "Aardvark" {


}

component "pasta" {


}

component "Conmon" {

}

component "slirp4netns" {

}

component "Seccomp" {
    
}
component "Podman" {

}

Buildah -> OCIRuntimeTools
runc ..> OCI_Config : uses
crun ..> OCI_Config : uses
Buildah -> Seccomp
Podman -> Seccomp
Podman -> OCIRuntimeTools
Podman -> Conmon
Podman -> Buildah
Podman -> pasta
Podman -> slirp4netns
Podman -> Aardvark
Podman -> Netavark
Podman -> Storage
Podman -> Image
@enduml

PlantUML version 1.2021.00(Sun Jan 10 11:25:05 CET 2021)
(MIT source distribution)
Java Runtime: OpenJDK Runtime Environment
JVM: OpenJDK 64-Bit Server VM
Default Encoding: UTF-8
Language: en
Country: US
--></g></svg>